<?xml version="1.0" standalone="no"?>
<!DOCTYPE svg PUBLIC "-//W3C//DTD SVG 20010904//EN"
 "http://www.w3.org/TR/2001/REC-SVG-20010904/DTD/svg10.dtd">
<svg version="1.0" xmlns="http://www.w3.org/2000/svg"
 width="225.000000pt" height="225.000000pt" viewBox="0 0 225.000000 225.000000"
 preserveAspectRatio="xMidYMid meet">

<g transform="translate(0.000000,225.000000) scale(0.100000,-0.100000)"
fill="#000000" stroke="none">
<path d="M990 1803 c-559 -55 -948 -373 -898 -736 29 -210 211 -397 498 -512
158 -63 280 -86 490 -92 207 -5 319 7 474 52 401 117 652 383 622 657 -31 274
-291 500 -680 593 -156 37 -361 53 -506 38z m450 -112 c111 -26 164 -45 220
-81 48 -31 80 -74 80 -109 0 -57 -115 -134 -256 -171 -95 -24 -114 -25 -114
-3 0 41 -35 155 -71 229 -39 84 -89 139 -134 150 -106 27 -207 -93 -256 -305
-17 -72 -25 -91 -39 -91 -31 0 -189 49 -238 74 -215 110 -88 263 263 321 129
21 429 13 545 -14z m-244 -175 c35 -37 74 -130 77 -185 l2 -36 -143 -3 c-113
-2 -144 0 -148 11 -8 22 42 164 71 203 48 62 88 65 141 10z m-813 -149 c59
-90 249 -187 418 -212 25 -4 51 -10 57 -14 7 -4 16 -59 22 -133 17 -203 66
-357 141 -442 l33 -38 -54 7 c-262 34 -456 119 -601 264 -187 187 -218 419
-82 621 l37 55 6 -41 c3 -23 14 -53 23 -67z m1620 -56 c28 -75 30 -223 4 -298
-84 -242 -390 -440 -736 -477 l-64 -7 41 46 c74 84 125 255 138 460 6 96 9
106 28 109 297 59 472 161 492 288 l7 39 35 -52 c19 -29 44 -77 55 -108z
m-713 -231 c0 -25 -7 -75 -14 -111 -30 -139 -85 -222 -148 -222 -69 0 -139
138 -154 304 l-6 74 161 0 161 0 0 -45z"/>
</g>
</svg>
